<svg width="106" height="32" viewBox="0 0 106 32" fill="none" xmlns="http://www.w3.org/2000/svg">
<path d="M14.7343 1.5731C14.7343 2.98933 14.7343 2.98933 13.2874 3.31496C8.07556 4.48817 3.82046 9.09962 3.20249 14.245C2.39838 20.9311 6.4512 26.79 13.1484 28.6204C20.1174 30.5263 27.8011 26.304 29.6674 19.5544C29.8769 18.8054 30.0304 18.0428 30.1266 17.2726C30.1576 17.0164 30.2507 16.9326 30.5063 16.9362C31.2719 16.9482 32.0363 16.9554 32.8007 16.9362C33.173 16.9254 33.2512 17.0559 33.2152 17.3923C32.8653 20.6043 31.7075 23.5098 29.5917 26.0119C26.9163 29.1795 23.4852 31.1931 19.2822 31.7881C13.069 32.668 7.86584 30.7514 3.8093 26.1399C1.02965 22.9818 -0.202571 19.2455 0.0269984 15.1261C0.438981 7.68218 6.03426 1.60661 13.6597 0.209532C14.7343 0.0120015 14.7343 0.0119995 14.7343 1.03796V1.5731Z" fill="#22BBB0"/>
<path d="M82.5198 0.0716358C84.0498 0.0716358 85.5799 0.0836076 87.1112 0.0644531C87.4983 0.0644531 87.5678 0.16861 87.4462 0.502617C87.2092 1.15986 86.9685 1.81949 86.7836 2.49109C86.6682 2.9077 86.4758 3.05136 86.0154 3.04657C83.6379 3.02263 81.2578 3.08967 78.8827 3.01784C77.2447 2.96756 76.2768 3.85585 76.3822 5.46244C76.4567 6.6153 76.3884 7.77534 76.3984 8.93419C76.4095 10.2151 77.2025 10.9861 78.5179 10.9933C80.2762 11.0017 82.0334 10.9813 83.7905 11.0053C84.2347 11.0113 84.3675 10.8712 84.339 10.4606C84.3042 10.0027 84.3042 9.54293 84.339 9.08503C84.3737 8.62772 84.2347 8.45533 83.7247 8.47209C82.5682 8.5104 81.4092 8.47209 80.2502 8.49244C79.8419 8.50082 79.7116 8.37272 79.729 7.98485C79.7588 7.32761 79.7476 6.66797 79.729 6.01074C79.7215 5.69828 79.7923 5.54025 80.1683 5.54264C82.4218 5.55541 84.6757 5.55541 86.93 5.54264C87.3023 5.54264 87.373 5.68869 87.3718 6.00474C87.3627 8.51797 87.3627 11.032 87.3718 13.5468C87.3718 13.8952 87.2477 13.9802 86.9077 13.979C83.9928 13.967 81.0754 14.0089 78.1617 13.9587C75.5273 13.9144 73.3544 11.7439 73.3222 9.19757C73.3015 7.74342 73.3015 6.28767 73.3222 4.83033C73.3515 3.58084 73.879 2.39037 74.7949 1.50651C75.7109 0.622646 76.9447 0.113447 78.2399 0.0848101C79.6657 0.0608669 81.094 0.0848101 82.5198 0.0848101V0.0716358Z" fill="#22BBB0"/>
<path d="M20.8524 3.56718C20.8524 6.89408 20.8425 10.1432 20.8636 13.3922C20.8636 13.8472 20.768 14.0136 20.2667 13.9801C19.5681 13.9334 18.862 13.9561 18.1572 13.9801C17.8581 13.9884 17.7712 13.8939 17.7725 13.6065C17.7799 9.201 17.7799 4.79546 17.7725 0.389926C17.7725 -0.0709794 18.0058 -0.00393862 18.3172 0.0307789C23.0724 0.561119 26.9093 2.66452 29.8652 6.28473C29.8888 6.31466 29.9185 6.34099 29.9508 6.37451C30.1382 6.26557 30.0451 6.08839 30.0463 5.94952C30.0538 4.15379 30.0612 2.35805 30.0463 0.562317C30.0463 0.18641 30.1233 0.0307792 30.5526 0.0535252C31.2338 0.089439 31.9165 0.089439 32.5977 0.0535252C33.0258 0.0307792 33.1486 0.142113 33.1449 0.568301C33.1201 2.82135 33.1337 5.0744 33.1337 7.32625C33.1337 9.38058 33.1226 11.4337 33.1424 13.4868C33.1424 13.8711 33.0518 14.0016 32.6386 13.9789C31.9776 13.935 31.3142 13.935 30.6532 13.9789C30.1568 14.0196 30.0017 13.8436 29.9086 13.3946C29.2311 10.1623 27.4938 7.55012 24.7824 5.54488C23.6003 4.67205 22.2708 4.00296 20.8524 3.56718Z" fill="white"/>
<path d="M105.942 4.91997C105.948 3.81375 105.559 2.73936 104.841 1.87704C104.122 1.01473 103.118 0.416959 101.997 0.184022C100.774 -0.0841414 99.5268 0.13015 98.647 0.064306C97.3167 0.064306 96.3451 0.0343771 95.3759 0.064306C92.9884 0.154093 90.9273 2.00849 90.6766 4.30464C90.5178 5.95219 90.5029 7.6097 90.6319 9.25967C90.8168 12.0957 92.9785 13.9525 95.9195 13.9561C97.5922 13.9561 99.2699 13.9705 100.939 13.9561C103.343 13.9298 105.43 12.2657 105.831 9.98395C106.128 8.31392 105.937 6.61156 105.942 4.91997ZM102.866 8.9903C102.855 10.1875 102.046 10.9728 100.811 10.9896C99.9636 11.0015 99.1161 10.9896 98.2697 10.9896C97.4433 10.9896 96.6169 10.9979 95.7879 10.9896C94.5284 10.9752 93.6957 10.1815 93.6784 8.96277C93.6635 7.66745 93.666 6.37212 93.6784 5.0768C93.6895 3.8569 94.4837 3.03206 95.7532 3.00333C97.4458 2.96582 99.1417 2.96582 100.841 3.00333C102.082 3.03087 102.859 3.84134 102.867 5.0385C102.876 6.36016 102.879 7.67583 102.866 8.9903Z" fill="#22BBB0"/>
<path d="M36.8478 4.51989C36.8478 3.18386 36.8614 1.84784 36.8391 0.511811C36.8391 0.152664 36.9198 0.0329462 37.3119 0.0461149C38.013 0.0796353 38.7179 0.0796353 39.4215 0.0461149C39.8285 0.0281575 39.9426 0.145481 39.9402 0.54174C39.9215 2.97436 39.929 5.40818 39.9315 7.8444C39.9315 9.91667 41.0607 10.9953 43.2273 10.9965C44.199 10.9965 45.1718 11.0049 46.1435 10.9965C47.8659 10.9785 49.108 9.78977 49.1217 8.12333C49.1366 5.6101 49.1366 3.09607 49.1217 0.58124C49.1217 0.182587 49.1874 0.0173808 49.649 0.0437182C50.37 0.0856187 51.0947 0.0592821 51.8194 0.0520992C52.0539 0.0520992 52.2103 0.0772424 52.2066 0.369349C52.1681 3.15992 52.3431 5.95648 52.1296 8.73987C51.9162 11.5233 49.8004 13.6003 46.9178 13.8996C45.2215 14.0768 43.4854 14.1103 41.7854 13.8517C38.976 13.4255 36.8925 11.0372 36.859 8.28734C36.8354 7.03392 36.849 5.7769 36.8478 4.51989Z" fill="white"/>
<path d="M70.2255 0.116112C69.9326 0.994825 69.6286 1.85798 69.3631 2.7331C69.2563 3.08267 68.9982 2.99648 68.7699 2.99648C66.1648 3.00127 63.5589 3.00127 60.9522 2.99648C59.2782 2.99648 58.5398 3.71477 58.5398 5.32973C58.5398 6.52689 58.5398 7.72405 58.5398 8.9212C58.5473 10.2213 59.3489 10.9899 60.7089 10.9923C63.3744 10.9923 66.0449 11.0043 68.7066 10.9851C69.136 10.9851 69.2787 11.0845 69.2563 11.5095C69.2191 12.205 69.234 12.9041 69.2563 13.6021C69.2638 13.8834 69.1819 13.9744 68.8841 13.9732C66.0114 13.9612 63.1374 14.0067 60.2672 13.9493C57.9603 13.9026 55.9066 12.1882 55.5914 9.9723C55.3029 7.97647 55.3067 5.95142 55.6026 3.95659C55.924 1.83284 57.9454 0.132874 60.1692 0.0885795C63.4538 0.0227359 66.746 0.0634415 70.0257 0.0610472C70.0943 0.071898 70.1613 0.0903729 70.2255 0.116112Z" fill="white"/>
<path d="M65.6201 8.46934C64.5864 8.46934 63.5527 8.45736 62.5178 8.47652C62.1703 8.47652 61.9978 8.443 62.0214 8.03836C62.0611 7.32007 62.0413 6.60177 62.0214 5.88348C62.0214 5.60215 62.0512 5.46327 62.4111 5.46686C64.562 5.48522 66.7129 5.48522 68.8638 5.46686C69.179 5.46686 69.2361 5.57342 69.2361 5.84517C69.22 6.60297 69.215 7.36077 69.2361 8.11977C69.246 8.42624 69.1232 8.47891 68.844 8.47891C67.7706 8.45497 66.6947 8.46934 65.6201 8.46934Z" fill="white"/>
</svg>
